<?xml version="1.0" encoding="UTF-8"?><svg id="Layer_1" xmlns="http://www.w3.org/2000/svg" viewBox="0 0 106.83 108.83"><defs><style>.cls-1{fill:#58595b;}.cls-2{fill:#f15a29;}</style></defs><path class="cls-2" d="M27.08,22.59s.03-.03.05-.05c7.3-6.53,16.03-9.8,26.19-9.8,6.16,0,12.03,1.3,17.62,3.9,5.59,2.6,10.08,6.03,13.48,10.27,3.4,4.25,5.99,9.93,7.76,17.03h-17.34s-73.88,0-73.88,0c-.64,3.47-.96,7.05-.96,10.74,0,.25,0,.51,0,.76h106.82c-.13-14.14-3.94-25.94-11.42-35.39C84.87,6.69,70.78,0,53.13,0S22.31,6.53,12.09,19.6c-.77.98-1.51,1.98-2.21,2.99h17.19Z"/><path class="cls-1" d="M80.85,86.51c-3.49,3.03-7.73,5.46-12.71,7.3-4.99,1.83-10.11,2.75-15.38,2.75-10.92,0-20.1-3.84-27.53-11.53-2.42-2.5-4.45-5.23-6.11-8.2H4.5c2.34,5.41,5.6,10.54,9.78,15.4,9.52,11.07,22.73,16.6,39.61,16.6,7.62,0,14.44-1.16,20.47-3.47,6.03-2.32,11.46-5.69,16.28-10.13,4.83-4.44,9.08-10.27,12.76-17.5h-15.03c-2.64,3.79-5.15,6.73-7.53,8.79Z"/></svg>